<?xml version="1.0" encoding="UTF-8"?>
<svg id="Layer_1" xmlns="http://www.w3.org/2000/svg" xmlns:xlink="http://www.w3.org/1999/xlink" version="1.1" viewBox="0 0 122.2 129.5">
  <!-- Generator: Adobe Illustrator 29.8.1, SVG Export Plug-In . SVG Version: 2.1.1 Build 2)  -->
  <defs>
    <style>
      .st0, .st1, .st2, .st3, .st4, .st5, .st6, .st7, .st8, .st9, .st10, .st11, .st12, .st13, .st14, .st15, .st16, .st17, .st18, .st19, .st20, .st21, .st22, .st23, .st24, .st25, .st26, .st27, .st28, .st29 {
        fill-rule: evenodd;
      }

      .st0, .st30 {
        fill: #b62a32;
      }

      .st1 {
        fill: #fcc62b;
      }

      .st2, .st31 {
        fill: #fff;
      }

      .st3, .st32 {
        fill: #233d44;
      }

      .st4 {
        fill: #3774a2;
      }

      .st5 {
        fill: #13ad5c;
      }

      .st6 {
        fill: #3e82b0;
      }

      .st7 {
        fill: #e23190;
      }

      .st8 {
        fill: #4295c3;
      }

      .st9 {
        fill: #faa432;
      }

      .st33 {
        fill: #2d3d53;
      }

      .st10 {
        fill: #ffc92b;
      }

      .st11 {
        stroke: #767a7d;
        stroke-miterlimit: 2.6;
        stroke-width: 0px;
      }

      .st11, .st12 {
        fill: #dbdddd;
      }

      .st13 {
        fill: #204b9c;
      }

      .st14, .st34 {
        fill: #0764ac;
      }

      .st15 {
        fill: #2d6597;
      }

      .st16, .st35 {
        fill: #df2e8f;
      }

      .st17 {
        fill: #e72d8f;
      }

      .st18 {
        fill: #0b88c0;
      }

      .st36 {
        clip-path: url(#clippath-1);
      }

      .st37 {
        clip-path: url(#clippath-3);
      }

      .st38 {
        clip-path: url(#clippath-4);
      }

      .st39 {
        clip-path: url(#clippath-2);
      }

      .st19 {
        fill: #1668ac;
      }

      .st32, .st40, .st34 {
        opacity: .8;
      }

      .st20 {
        fill: #1683bb;
      }

      .st21 {
        fill: #9a1e2a;
      }

      .st41 {
        clip-rule: evenodd;
        fill: none;
      }

      .st22 {
        fill: #2c5d8f;
      }

      .st23 {
        fill: #adb2b5;
      }

      .st42, .st28 {
        fill: #17181c;
      }

      .st40 {
        fill: #41817f;
      }

      .st24 {
        fill: #317899;
      }

      .st25 {
        fill: #3f5857;
      }

      .st26 {
        fill: #169050;
      }

      .st43 {
        fill: #1f519d;
      }

      .st27 {
        fill: #1778b3;
      }

      .st44 {
        clip-path: url(#clippath);
      }

      .st29 {
        fill: #25827f;
      }
    </style>
    <clipPath id="clippath">
      <path class="st41" d="M99.3,67.5c-.8,1.9-1.6,3.4-1.7,3.8-.3,1.2.5-3.2-2.6-4.5-.7-.3-1.5-.7-2.1-1.1-.5-.4-1-.9-1.3-1.4-1.5-2.4-.8-5.5,1.5-6.9.9-.6,1.9-.8,3-.7,1.5.1,2.8.9,3.6,2,.7,1,1.1,2.1,1.1,3.3.1,2-.7,3.7-1.5,5.5h0Z"/>
    </clipPath>
    <clipPath id="clippath-1">
      <path class="st41" d="M92.6,68.4c1,1.8,1.7,3.4,1.9,3.7.7,1-2.3-2.4-5.1-.7-.6.4-1.4.8-2.1.9-.6.2-1.3.2-1.9.1-2.8-.3-4.8-2.7-4.4-5.4.1-1.1.6-2,1.3-2.7,1-1.1,2.4-1.6,3.8-1.6,1.2,0,2.3.5,3.3,1.1,1.6,1.1,2.5,2.8,3.4,4.5h0Z"/>
    </clipPath>
    <clipPath id="clippath-2">
      <path class="st41" d="M99.6,75.6c.6,1,1.1,1.9,1.3,2.1.5.6-1.5-1.3-3.1-.2-.4.3-.8.5-1.2.7-.4.1-.7.2-1.1.2-1.7,0-3-1.4-2.9-3.1,0-.6.3-1.2.6-1.7.6-.7,1.4-1.1,2.2-1.1.7,0,1.4.2,2,.5,1,.6,1.6,1.6,2.2,2.6h0Z"/>
    </clipPath>
    <clipPath id="clippath-3">
      <path class="st41" d="M106.2,76c-.6,1.4-1.1,2.5-1.2,2.8-.2.9.3-2.3-2-3.1-.5-.2-1.1-.4-1.5-.7-.4-.3-.7-.6-1-1-1.1-1.7-.7-3.9.9-4.9.6-.4,1.4-.6,2.1-.6,1.1,0,2,.6,2.6,1.3.5.7.8,1.5.9,2.3.1,1.4-.4,2.7-.9,3.9h0Z"/>
    </clipPath>
    <clipPath id="clippath-4">
      <path class="st41" d="M103.4,86.1c0,1.6,0,2.8,0,3.2.2.9-.8-2.4-3.2-2.2-.6,0-1.2,0-1.8,0-.5,0-.9-.3-1.4-.5-1.8-1.1-2.3-3.5-1.2-5.2.4-.7,1.1-1.2,1.8-1.5,1.1-.4,2.2-.3,3.1.2.8.4,1.4,1.1,1.8,1.9.7,1.3.8,2.8.8,4.2h0Z"/>
    </clipPath>
  </defs>
  <g>
    <g>
      <path class="st2" d="M25.2,71.7c2.4-.5,3.5-3.4,3.1-5.8-.3-2.4-1.6-4.6-2.1-7-.5-2.4.2-5.4,2.5-6.2.8-.3,1.8-.3,2.6-.8,2.3-1.4,1-6,3.5-7.1.7-.3,1.4-.2,2.1-.5,1.5-.6,2-2.3,3-3.5,1.4-1.8,3.9-2.7,6.1-2.2.7.2,1.3.4,2,.2.5-.2.9-.7,1.3-1.1,1.6-1.8,4-2.8,6.5-2.8,1.5,0,3.1.4,4.3-.5,1.1-.8,1.5-2.3,2.7-3,1.3-.7,2.9,0,4.1.9s2.3,2.1,3.7,2.4c.9.2,1.9,0,2.9,0,2.8-.1,5.6,1.3,7.1,3.7.3.5.6,1,1,1.3,1.2.7,2.6-.4,3.9-.5,1.6,0,2.9,1.2,3.7,2.5s1.7,2.8,3.2,3.4c1.1.4,2.3.3,3.3,1,1.6,1.1,1.3,4.5,2.1,6.2.4.9,1.1.4,2,.8.7.3,2.1.8,2.7,1.3.7.7,1.4,3.2,1.4,4.2,0,2.8.2,4.2.2,7v61.5H23.8v-56l1.4.6Z"/>
      <path class="st7" d="M104,59.6c0-.6.6-7.9-5.9-7.5.1-2-.6-6.2-1.8-7.8-1.3-1.7-3.4-2.2-5.4-1.6,0-1.8-.9-3.3-2.3-4.5-2.1-1.7-5.7-2.5-7.7,0,0-1.8-1.1-3.3-2.4-4.2-.8-.6-1.7-1-2.6-1.2-.2,0-.5,0-.7-.1-1.4-.1-2.8.1-3.9.9-.3.2-.5.5-.8.8-.2-1.5-1-2.7-2.3-3.5-1.1-.7-2.2-1.1-3.1-2v-1.6s-.3,0-.3,0h-.3s0,1.6,0,1.6c-.9.9-2,1.4-3.1,2-1.3.8-2.1,2-2.3,3.5-.3-.3-.5-.5-.8-.8-1.1-.8-2.6-1-3.9-.9-.2,0-.5,0-.7.1-.9.2-1.9.6-2.6,1.2-1.3.9-2.3,2.4-2.4,4.2-2-2.5-5.7-1.7-7.7,0-1.4,1.2-2.3,2.7-2.3,4.5-2-.5-4.1,0-5.4,1.6-1.3,1.6-1.7,4.1-1.6,6.1-6.5-.4-6.1,8-4.8,11.7.5,1.5,1.5,2.8,1.4,4.3s-.8,3.1-1.2,3.6c-.6.8-2,1-3.2,1.1v2.5c.8-.2,2.4-.6,2.9-1h0c1.5-1.1,2.3-1.8,2.5-3.9,0-1,0-2.1-.1-3,0-.8-.3-1.7-.5-2.5-.6-1.7-1.3-3.2-1.5-5-.4-3.3,2.6-4.7,5.4-4.8-.6-8.8,5.2-7.6,7.3-7.3v-2s0-.6,0-.6c.1-.7.7-1.6,1.5-2.2,1.7-1.4,4-1.9,6-.9.8.4,1.6,1.2,2.1,2.1v-2.9c.7-1.7,2.5-3.1,4.3-3.5,1.9-.4,4.4,0,5.7,2.1.2-1.4.4-2.2.9-2.8.8-1.1,2.3-1.7,3.5-2.4.2-.1.4-.2.6-.4.2-.1.3-.3.5-.4h0c.2.2.3.3.5.4.2.1.4.3.6.4,1.2.7,2.7,1.3,3.5,2.4.4.6.7,1.4.9,2.8,1.3-2,3.9-2.5,5.7-2.1,1.8.4,3.7,1.8,4.3,3.5v2.9c.5-.9,1.3-1.7,2.1-2.1,2-1,4.3-.4,6,.9.8.7,1.4,1.5,1.5,2.2v.6s0,2,0,2c1.8-2.2,8.1-2,7.5,6.9,2.8,0,5.8-.4,6.3,6.4h.5Z"/>
      <g>
        <path class="st10" d="M20.3,102.5c.2.9.5,1.9.1,2.8-.4,1.3-1.8,2.6-1.8,4.2s.4,1.7.1,3.1c.8-1.3,0-2.7.9-4.5.5-.9,1.8-1.4,2.1-2.6.2-.6.1-1.3.2-2.5,0,0,.2,0,.2,0,.3.8.8,1.8.6,2.7-.2,1.3-1.3,2.9-1,4.4.2,1.3.7,1.6.7,3.1.5-1.4-.5-2.7,0-4.6.2-.7.9-1.3,1.3-2v-25.3c-.2-.5-.4-1.2-.4-1.7,0-.5.2-1.1.4-1.7v-3.7c-.3-.6-.6-1.1-.6-2.1-.4,1.5.7,2.6.3,4.6-.2,1-1.4,1.9-1.3,3.1,0,.7.2,1.3.4,2.5h0c-.5-.7-1.2-1.6-1.2-2.5-.2-1.3.6-3.1-.1-4.5-.5-1.2-1-1.4-1.4-2.8-.2,1.5,1.2,2.5,1.1,4.5-.1,1-1.1,2.1-.8,3.2,0,.7.4,1.3.8,2.4h0c-.6-.6-1.5-1.3-1.7-2.2-.4-1.3,0-3.2-.9-4.5-.7-1.1-1.3-1.2-1.9-2.5.1,1.5,1.6,2.3,1.8,4.3,0,1-.7,2.2-.2,3.3.1.7.6,1.2,1.2,2.2,0,0,0,0,0,0-.7-.5-1.7-1.1-2-1.9-.6-1.2-.5-3.2-1.6-4.3-.9-.9-1.5-1-2.3-2.2.4,1.5,1.9,2,2.5,3.9.2,1-.3,2.3.3,3.3.2.6.8,1.1,1.6,2,0,0,0,0,0,0-.8-.4-1.8-.8-2.3-1.6-.8-1.1-1-3-2.3-3.9-1-.8-1.6-.7-2.6-1.8.6,1.4,2.2,1.6,3.1,3.4.4,1,0,2.3.9,3.2.4.5,1,.9,1.9,1.6,0,0,0,0,0,0-.9-.2-2-.4-2.5-1.1-1-.9-1.5-2.8-2.9-3.5-1.2-.6-1.7-.4-2.9-1.3.8,1.3,2.4,1.2,3.7,2.8.6.9.5,2.3,1.4,3,.4.5,1.1.7,2.1,1.3,0,0,0,0,0,0-.9-.1-2-.1-2.7-.7-1.2-.7-2-2.5-3.5-2.9-1.3-.4-1.7-.1-3.1-.8,1,1.1,2.6.8,4.1,2.2.7.8.9,2.2,1.9,2.8.5.4,1.2.5,2.3.9,0,0,0,0,0,0-.9,0-2,.2-2.8-.2-1.2-.5-2.4-2.1-3.9-2.3-1.3-.2-1.7.2-3.1-.2,1.2.9,2.7.3,4.4,1.5.9.6,1.2,2,2.3,2.4.6.3,1.3.3,2.4.5,0,0,0,0,0,0-.9.2-1.9.5-2.8.2-1.3-.3-2.7-1.7-4.2-1.6-1.3,0-1.7.5-3.1.3,1.3.7,2.8-.1,4.6.7.9.5,1.5,1.7,2.7,2,.6.2,1.3,0,2.5.1h0c-.8.4-1.8,1-2.7.8-1.4,0-2.9-1.2-4.5-.9-1.3.3-1.6.7-3.1.8,1.5.5,2.7-.6,4.7,0,1,.3,1.8,1.5,3,1.5.7.1,1.3-.2,2.5-.3,0,0,0,0,0,0-.8.5-1.6,1.2-2.5,1.1-1.3.1-3.1-.7-4.6-.1-1.2.5-1.4,1-2.8,1.3,1.5.2,2.5-1,4.6-.9,1,.1,2,1.2,3.2,1,.7,0,1.3-.4,2.4-.7,0,0,0,0,0,0-.7.6-1.4,1.4-2.3,1.5-1.3.3-3.2-.2-4.5.6-1.1.7-1.2,1.2-2.6,1.8,1.5,0,2.3-1.4,4.3-1.6,1,0,2.2.8,3.3.4.7-.1,1.2-.6,2.3-1.1,0,0,0,0,0,0-.6.7-1.1,1.6-2,1.9-1.2.6-3.2.4-4.3,1.4-1,.9-1,1.4-2.3,2.2,1.5-.3,2-1.8,4-2.3,1-.2,2.3.4,3.3-.2.6-.2,1.1-.8,2-1.5,0,0,0,0,0,0-.4.8-.9,1.8-1.7,2.2-1.1.8-3.1.9-4,2.1-.8,1-.7,1.6-1.8,2.5,1.4-.5,1.7-2.1,3.5-3,1-.4,2.3,0,3.3-.7.6-.3.9-1,1.8-1.8,0,0,0,0,0,0-.3.9-.5,1.9-1.3,2.5-1,.9-2.9,1.4-3.6,2.8-.6,1.1-.5,1.7-1.4,2.8,1.3-.7,1.3-2.4,3-3.5.9-.5,2.3-.4,3.1-1.3.5-.4.8-1.1,1.4-2.1,0,0,0,0,0,0-.2.9-.2,2-.9,2.7-.8,1.1-2.6,1.8-3.1,3.3-.4,1.2-.2,1.7-.9,3,1.2-1,.9-2.6,2.4-4,.8-.7,2.2-.7,2.8-1.8.4-.5.6-1.2,1.1-2.3,0,0,0,0,0,0,0,.9.1,2-.4,2.8-.6,1.2-2.2,2.3-2.5,3.8-.2,1.3.1,1.7-.4,3.1,1-1.2.4-2.7,1.7-4.3.7-.8,2-1.1,2.5-2.2.3-.5.4-1.3.7-2.4t0,0h0Z"/>
        <path class="st17" d="M14.4,90.8c1.2-.1,1.2-1.6,3.4-1.4,1.8,0,2.5.8,3.1,1.4-.6-.2-1.4-.6-2.2-.8.4.7-.1,1.2-.8,1.2s-.9-.6-.7-1.4c-1.2,0-2.2,1.7-2.9,1h0Z"/>
        <path class="st17" d="M16.4,95.7c-.8,1.3-.1,2.5,1.5,2.6,2,.3,4.7-.5,4.8-1.4,0-.4-2.1-.4-2-1.2.1-.4.5-.4,1-.3.3,0,.5.1.7-.8.4-2.9,1-6.1-4-7.6-1.8-.3-3.4.1-4,2.2h.1c1-1.8,2.5-1.7,3.8-1.4,3,.7,4.9,2.8,3.6,6.9h-.1c-.6.1-1.4.1-1.4.9s.5.9,1.2,1c-2,.5-3,1.3-4.7.8-.4-.1-.9-.4-.4-1.8h-.1Z"/>
        <path class="st17" d="M23.8,100.3c-.2,0-.5,0-.8.1-.1.1-.3,0-.4,0-.3-.1-.4-.1-.7-.1-.5,0-2,.5-2.9.5h-.1c.4.4.8.4,1.3.7.4.2.5.7,1.3.8.5,0,1-.1,1.4-.1s.5,0,.8.1v-2h0Z"/>
        <path class="st17" d="M23.8,89.1c-.2.3-.5.4-.8.4-1.4,0-1.4-2.9-1.4-4.8s.1-.1.1,0c.2,1.7.2,4,1.3,4.3.2,0,.5-.3.8-.5v.6h0Z"/>
        <polygon class="st7" points="103.4 118.5 104.1 117.8 104.1 127.7 104.1 127.7 103.4 127.7 24.6 127.7 23.8 127.7 23.8 126.3 23.8 113.5 24.6 113.5 24.6 126.3 103.4 126.3 103.4 118.5"/>
        <path class="st16" d="M34.5,86.3c0-5.8,0-6.8,0-8,0-1.3.4-1.9,1.4-2.1.4,0,.6-.1.9-.1.2,0,.3,0,.3-.2,0-.2-.2-.3-.6-.3-1.1,0-3.4.1-3.6.1s-2.5-.1-4.2-.1c-.4,0-.6,0-.6.3s.2.2.3.2c.3,0,1,0,1.2.1,1.2.3,1.6.8,1.6,2.1,0,1.2,0,2.2,0,8v10.7c0,9.6-1.2,11.6-3.6,14-.3.3-.8.8-1.3,1.1-.3.2-.5.3-.5.5s.2.2.3.2.2,0,.3,0c.4-.2,1-.6,1.4-.9,3-2.1,4.7-3.9,5.4-5.7,1.1-2.6,1.1-5,1.1-11v-8.9h0Z"/>
        <path class="st35" d="M49,87.9c-.2,0-.4,0-.7-.1-.3-.1-.8-.4-1.4-1.9-1-2.5-3.6-9.4-3.9-10-.2-.5-.2-.6-.3-.6s-.2.1-.4.6l-3.8,10.3c-.3.8-.6,1.4-1.4,1.6-.1,0-.4,0-.5,0s-.2,0-.2.1c0,.1.1.1.3.1.8,0,1.7,0,1.9,0s.9,0,1.3,0,.3,0,.3-.1c0,0,0-.1-.2-.1h-.2c-.3,0-.6-.2-.6-.5s.1-.7.2-1.1l1-2.9c0-.1,0-.1.2-.1h3.5c.1,0,.1,0,.2.1l1.5,4.1c.1.2,0,.4,0,.4,0,0-.1,0-.1.1,0,.1.2.1.5.1,1.1,0,2.4,0,2.6,0s.3,0,.3-.1,0-.1-.2-.1ZM44,82.6h-3.2s0,0,0-.1l1.4-4.4c0-.3.2-.3.2,0l1.6,4.4c0,0,0,.1,0,.1Z"/>
        <path class="st16" d="M53.8,80.4v-3.6c0-.6.2-.8.6-.9.2,0,.3,0,.4,0s.1,0,.1-.1c0-.1-.1-.1-.3-.1-.5,0-1.5,0-1.6,0-.1,0-1.1,0-1.7,0-.2,0-.3,0-.3.1s0,.1.1.1c.1,0,.3,0,.5,0,.4,0,.5.4.6.9,0,.5,0,1,0,3.6v2.9c0,1.6,0,2.9,0,3.6,0,.5-.2.8-.5.9-.1,0-.3,0-.5,0s-.1,0-.1.1c0,.1,0,.1.3.1.5,0,1.5,0,1.6,0s1.1,0,2,0,.3,0,.3-.1,0-.1-.1-.1-.5,0-.7,0c-.5,0-.6-.4-.6-.9,0-.7,0-2,0-3.6v-2.9h0Z"/>
        <path class="st16" d="M59.7,83.3c0,1.6,0,2.9-.1,3.6,0,.5-.1.8-.5.9-.2,0-.3,0-.5,0s-.1,0-.1.1c0,.1.1.1.3.1.5,0,1.6,0,1.6,0,.1,0,1.1,0,2.1,0s.3,0,.3-.1,0-.1-.1-.1c-.2,0-.5,0-.7,0-.5,0-.6-.4-.7-.9,0-.7,0-2,0-3.6v-6.8c0-.2,0-.3.1-.3.1,0,.4-.1.7-.1s1.4,0,2.3.8c.9.9.9,2,.9,2.6,0,1.5-1.3,2.7-2.9,2.7s-.4,0-.4.2,0,.1.2.1c0,0,.3,0,.3,0,2.4,0,4.1-1.6,4.1-3.9,0-.9-.5-1.7-.8-2-.3-.2-1-.9-3.1-.9-.7,0-1.7,0-2.1,0s-1.1,0-1.9,0c-.2,0-.3,0-.3.1s0,.1.1.1c.1,0,.4,0,.5,0,.6.1.7.4.7.9,0,.5,0,1,0,3.6v2.9h0Z"/>
        <path class="st16" d="M69.6,82.8c0,2.4.6,3.6,1.4,4.4,1.1,1.1,2.8,1.2,3.4,1.2,1,0,2.2-.2,3.4-1.2,1.3-1.2,1.5-3.2,1.5-5v-1.8c0-2.6,0-3.1,0-3.6,0-.6.2-.8.6-.9.2,0,.3,0,.4,0s.1,0,.1-.1c0-.1-.1-.1-.3-.1-.5,0-1.3,0-1.4,0s-1,0-1.8,0c-.2,0-.2,0-.2.1s0,.1.1.1c.1,0,.4,0,.5,0,.5.1.7.4.7.9,0,.5,0,1,0,3.6v2.1c0,1.7-.2,3.1-.9,4.1-.6.7-1.6,1.2-2.6,1.2s-1.7-.2-2.5-.9c-.7-.7-1.2-1.7-1.2-4.1v-5.9c0-.6.2-.9.6-.9.2,0,.3,0,.4,0s.1,0,.1-.1c0-.1-.1-.1-.3-.1-.5,0-1.5,0-1.7,0s-1.1,0-1.9,0c-.2,0-.3,0-.3.1s0,.1.1.1c.1,0,.4,0,.6,0,.5.1.7.4.7.9,0,.5,0,1,0,3.6v2.4h0Z"/>
        <path class="st35" d="M95.7,87.9c-.1,0-.3,0-.6,0-.4,0-1.1-.2-2-1.2-1-1-2.1-2.5-3.4-4.2,1.5-1.4,2-2.6,2-3.8s-.7-2-1.1-2.2c-.9-.6-2-.7-3-.7-.5,0-1.8,0-2,0s-1.1,0-1.9,0c-.1,0-.2,0-.2.1s0,.1.1.1c.1,0,.4,0,.5,0,.6.1.7.4.7.9,0,.5,0,1,0,3.6v2.9c0,1.6,0,2.9,0,3.6,0,.5-.1.8-.5.9-.2,0-.4,0-.5,0s-.1,0-.1.1c0,.1,0,.1.3.1.5,0,1.6,0,1.6,0,.1,0,1.1,0,2.1,0s.2,0,.2-.1,0-.1-.1-.1c-.2,0-.5,0-.8,0-.5,0-.6-.4-.6-.9,0-.7,0-2,0-3.6v-.4c0,0,0-.1.1-.1h2.1c.1,0,.1,0,.2.1.3.4,1.1,1.6,1.8,2.5.9,1.2,1.5,2.1,2.2,2.4.4.2.8.3,1.8.3h1.2c.3,0,.4,0,.4-.1s0-.1-.1-.1ZM89.2,82c-.4.3-.8.3-1.2.3-.7,0-1.5-.1-1.8-.3,0,0-.1-.1-.1-.2v-5.4c0-.1,0-.2.1-.2.2,0,.6-.1,1.1-.1,1.8,0,2.9,1.2,2.9,3.3s-.4,2.2-1,2.6Z"/>
        <path class="st21" d="M89.1,60c.5,1.2.8,2.3,1,2.5.4.7-1.3-1.7-3.2-.8-.4.2-1,.4-1.4.5-.4,0-.8,0-1.3,0-1.8-.4-2.9-2.1-2.5-3.8.2-.7.5-1.3,1-1.7.8-.7,1.7-.9,2.5-.8.8.1,1.5.5,2,1,1,.8,1.4,2,1.9,3.1h0Z"/>
        <path class="st30" d="M84.2,62.1c.4,0,.8.1,1.3,0,.5,0,1-.3,1.4-.5,1.6-.7,3.1.8,3.3.9,0,0,0-.1,0-.2,0-.1-.1-.4-.3-.7-.4-1.1-.9-2.1-1.8-2.9-.6-.5-1.3-.9-2-1-.9-.1-1.8.1-2.5.8-.5.4-.9,1-1,1.7,0,.2,0,.5,0,.7.4.5,1.1.9,1.8,1.1Z"/>
        <path class="st14" d="M99.3,67.5c-.8,1.9-1.6,3.4-1.7,3.8-.3,1.2.5-3.2-2.6-4.5-.7-.3-1.5-.7-2.1-1.1-.5-.4-1-.9-1.3-1.4-1.5-2.4-.8-5.5,1.5-6.9.9-.6,1.9-.8,3-.7,1.5.1,2.8.9,3.6,2,.7,1,1.1,2.1,1.1,3.3.1,2-.7,3.7-1.5,5.5h0Z"/>
        <g class="st44">
          <path class="st13" d="M98,70.1c-.8,1.9-1.6,3.4-1.7,3.8-.3,1.2.5-3.2-2.6-4.5-.7-.3-1.5-.7-2.1-1.1-.5-.4-1-.9-1.3-1.4-1.5-2.4-.8-5.5,1.5-6.9.9-.6,1.9-.8,3-.7,1.5.1,2.8.9,3.6,2,.7,1,1.1,2.1,1.1,3.3.1,2-.7,3.7-1.5,5.5h0Z"/>
        </g>
        <path class="st5" d="M92.6,68.4c1,1.8,1.7,3.4,1.9,3.7.7,1-2.3-2.4-5.1-.7-.6.4-1.4.8-2.1.9-.6.2-1.3.2-1.9.1-2.8-.3-4.8-2.7-4.4-5.4.1-1.1.6-2,1.3-2.7,1-1.1,2.4-1.6,3.8-1.6,1.2,0,2.3.5,3.3,1.1,1.6,1.1,2.5,2.8,3.4,4.5h0Z"/>
        <g class="st36">
          <path class="st26" d="M93.8,70.9c1,1.8,1.7,3.4,1.9,3.7.7,1-2.3-2.4-5.1-.7-.6.4-1.4.8-2.1.9-.6.2-1.3.2-1.9.1-2.8-.3-4.8-2.7-4.4-5.4.1-1.1.6-2,1.3-2.7,1-1.1,2.4-1.6,3.8-1.6,1.2,0,2.3.5,3.3,1.1,1.6,1.1,2.5,2.8,3.4,4.5h0Z"/>
        </g>
        <path class="st14" d="M99.6,75.6c.6,1,1.1,1.9,1.3,2.1.5.6-1.5-1.3-3.1-.2-.4.3-.8.5-1.2.7-.4.1-.7.2-1.1.2-1.7,0-3-1.4-2.9-3.1,0-.6.3-1.2.6-1.7.6-.7,1.4-1.1,2.2-1.1.7,0,1.4.2,2,.5,1,.6,1.6,1.6,2.2,2.6h0Z"/>
        <g class="st39">
          <path class="st13" d="M100.4,76.9c.6,1,1.1,1.9,1.3,2.1.5.6-1.5-1.3-3.1-.2-.4.3-.8.5-1.2.7-.4.1-.7.2-1.1.2-1.7,0-3-1.4-2.9-3.1,0-.6.3-1.2.6-1.7.6-.7,1.4-1.1,2.2-1.1.7,0,1.4.2,2,.5,1,.6,1.6,1.6,2.2,2.6h0Z"/>
        </g>
        <path class="st21" d="M106.2,76c-.6,1.4-1.1,2.5-1.2,2.8-.2.9.3-2.3-2-3.1-.5-.2-1.1-.4-1.5-.7-.4-.3-.7-.6-1-1-1.1-1.7-.7-3.9.9-4.9.6-.4,1.4-.6,2.1-.6,1.1,0,2,.6,2.6,1.3.5.7.8,1.5.9,2.3.1,1.4-.4,2.7-.9,3.9h0Z"/>
        <g class="st37">
          <path class="st0" d="M105.3,78c-.6,1.4-1.1,2.5-1.2,2.8-.2.9.3-2.3-2-3.1-.5-.2-1.1-.4-1.5-.7-.4-.3-.7-.6-1-1-1.1-1.7-.7-3.9.9-4.9.6-.4,1.4-.6,2.1-.6,1.1,0,2,.6,2.6,1.3.5.7.8,1.5.9,2.3.1,1.4-.4,2.7-.9,3.9h0Z"/>
        </g>
        <path class="st1" d="M103.4,86.1c0,1.6,0,2.8,0,3.2.2.9-.8-2.4-3.2-2.2-.6,0-1.2,0-1.8,0-.5,0-.9-.3-1.4-.5-1.8-1.1-2.3-3.5-1.2-5.2.4-.7,1.1-1.2,1.8-1.5,1.1-.4,2.2-.3,3.1.2.8.4,1.4,1.1,1.8,1.9.7,1.3.8,2.8.8,4.2h0Z"/>
        <g class="st38">
          <path class="st9" d="M103.5,89c0,1.6,0,2.8,0,3.2.2.9-.8-2.4-3.2-2.2-.6,0-1.2,0-1.8,0-.5,0-.9-.3-1.4-.5-1.8-1.1-2.3-3.5-1.2-5.2.4-.7,1.1-1.2,1.8-1.5,1.1-.4,2.2-.3,3.1.2.8.4,1.4,1.1,1.8,1.9.7,1.3.8,2.8.8,4.2h0Z"/>
        </g>
        <g>
          <path class="st42" d="M107.5,54.2l3.7,4.7h0s0,0,0,0c-.1,0-.2.2-.2.3l-3.8-4.8.3-.2h0ZM110.9,52.2l.6,2v-2s.3,0,.3,0v3.1s0,0,0,0v-3c.1,0,.5,0,.5,0l-.2,3.6h0c0,0,.3-3.5.3-3.5h.4s-.3,4.1-.3,4.1h0s.5-4.1.5-4.1h.4s-.6,4.7-.6,4.7h0c0,0,.6-4.5.6-4.5h.4s-.7,5.1-.7,5.1v.2c0,0,.9-5.2.9-5.2h.4c0,0-.9,5.7-.9,5.7v.2c.1,0,0,0,0,0h0s0,0,0,0c-.2,0-.3,0-.4,0v-.2s0-.2,0-.2v.3h-.1s0,0,0,0h0c0,0-.2,0-.3,0h0s0,0,0,0h0s-.1,0-.1,0h0s0,0,0,0c0,0-.2,0-.2,0-.3,0-.6.1-.9.3,0,0,0,0,0,0,0,0-.1,0-.2,0h0s-3.4-5.1-3.4-5.1l.3-.2,3.3,5v-.4s-3.1-4.7-3.1-4.7l.3-.2,2.8,4.3v-.2s-2.7-4.3-2.7-4.3l.3-.2,2.4,3.8v-.2s-2.1-3.5-2.1-3.5l.3-.2,1.8,3v-.3s0-.2,0-.2l-1.5-2.6.3-.2.8,1.3-.5-1.5h.3ZM112.2,56.5h0c0,0,0,0,0,0h0ZM112.8,57.6v.4s0,0,0,0v-.4s0,0,0,0h0Z"/>
          <g>
            <path class="st19" d="M120,68.6c-.4-.7-.8-1.1-1.4-1.4-1.4-.6-2.5-.3-3.7.4-1.4.8-1.3,1.3-1.2,2.6.3,1.8.5,3.5.7,5.3.5,3.8.6,7.6.7,11.4.1,5.9,1,12.6-.3,18.4-.7,3.3-2.3,5.8-4.9,7.9-1.9,1.5-3.9,3-5.8,4.6v-26.5c.9,0,1.6-.7,2.1-2,1.6-4.4,2.1-10.8,2.6-15.6.2-2.1.2-4.1.3-6.2,0-.9,0-1.7,0-2.6,0-1.2-.1-2.2.4-3.1.3-.6,1-1.1,1-2.1,0-.5,0-.8.5-1,1-.4,1.9-.4,2.7-.2,1.3.2,2.1.7,2.8,1.3,1,.9,1.4,1.6,1.7,2.9,0,.4.2.8.3,1.2.2.6.4,1.2.8,1.6.4.6,1.8,2.4.5,3h0Z"/>
            <path class="st3" d="M118,67h0s0,0,0,0h0ZM117.3,66.9c-.8,0-1.6.3-2.4.7-1.4.8-1.3,1.3-1.2,2.6.3,1.8.5,3.5.7,5.3.2,1.7.3,3.4.5,5.1-.3-1.2-.3-2.2-.5-3.3,0-.6-.3-1.2-.5-1.8-.1-.5-.6-1.2-.7-1.6-.2-.6-.3-1.1-.3-2,0-2.2-.1-3.1-2.1-5.2-.5-.5-1.1-1.1-1.7-1.6v-.3c0-.5,0-.9,0-1.3,1.3,1.3,2.4,2.1,4.5,2.4.7.1,1.4,0,2.2-.2.2.5.7.8,1.4,1.1h0Z"/>
            <path class="st25" d="M109.2,63.6c0-.6,0-1.1.3-1.5,0,0,0,0,0,0,.8,0,1.1,0,1.9-.4.7-.5,1-.1,2.2,0,.4,0,.8-.1,1.2-.5.7.2,1.4.6,2,1.1.7.3,1.1.2,1.5,0,0,.2.1.4.2.6l.2,1.1c-.4-.3-.9-.5-1.3-.7,0,.5-.2.8-.3,1.2,0,.5.3.7-.5.8-.3,0-.6,0-.8,0,0,.2,0,.3.1.5-.8.3-1.5.3-2.2.2-2.1-.3-3.2-1.1-4.5-2.4h0Z"/>
            <path class="st4" d="M109.5,62.1c0,0,0-.1.1-.2.3-.6,1-1.1,1-2.1,0-.3,0-.6.2-.8.9,1.4,2.5,1.6,4,2.1-.4.4-.8.5-1.2.5-1.2-.1-1.4-.5-2.2,0-.8.5-1.1.4-1.9.4h0ZM110.8,59s0,0,.1,0c0,0,0,0-.1,0h0Z"/>
            <path class="st11" d="M120,68.6c-.4-.7-.8-1.1-1.4-1.4-.5-.2-.9-.3-1.3-.3-.9-.4-1.5-.9-1.5-1.6.1,0,.5,0,.8,0,.8-.2.5-.3.5-.8,0-.4.2-.7.3-1.2.4.2.9.4,1.3.7h0c.2.7.4,1.3.8,1.7.4.6,1.8,2.4.5,3h0Z"/>
            <path class="st12" d="M112.6,62h0s-.2,0-.2,0c-.4-.2-.7-.6-.8-1.1-.1-.5-.2-.7-.5,0-.1.2-.1.5-.1,1-.2.4-.2.4.2.6,0,.2,0,.4.2.6.1.5.2.8.6,1.2.2.2.4.4.7.6.5.3,1,.5,1.6.7,0-.8-.2-.8-.9-1.4v-.4c-.1,0-.1-.1-.1-.1-.4-.1-.7-.5-.7-1s0-.4.2-.6h0Z"/>
            <path class="st2" d="M116.9,65.1c-.8-.8-1.5-1.7-2.5-2,0-.1.1-.3.1-.5,0-.3-.2-.6-.4-.8,1.3.7,2.2,2,3,3.1,0,0,0,.2-.2.2h0Z"/>
            <path class="st28" d="M117.4,65.1s-.5,0-.5,0c0,0,0,.2,0,.2.1.1.4,0,.5,0,.2,0,.3,0,.4.1,0,0,.2.1.2.1,0,0,0,0,0,0,0,0-.1,0-.1,0,0-.2-.3-.3-.6-.3h0Z"/>
            <path class="st23" d="M117.3,66.9c.4,0,1,0,1.4,0,.3-.2-1-1.2-1.2-1.4.9.2,2.5,1.7,2.7,2.3.1-.4-.2-1.4-.8-2.2.4.6,1.8,2.3.5,3-.4-.7-.8-1.1-1.4-1.4-.5-.2-.8-.4-1.3-.4h0Z"/>
            <path class="st28" d="M113.5,61.6c.6,0,1,.5,1,1s-.5,1-1,1-1-.5-1-1,.5-1,1-1h0Z"/>
            <path class="st2" d="M113.4,62.2c-.2-.3,0-.4.2-.4.7,0,0,.6-.2.4h0Z"/>
            <path class="st8" d="M110.8,59c0,0,.2-.2.3-.2,1-.4,1.9-.4,2.7-.2,1.3.2,2.1.7,2.8,1.3.8.8,1.3,1.4,1.5,2.3-.5.3-.9.4-1.5,0-1.9-1.7-4.6-1.1-5.9-3.2h0Z"/>
            <path class="st6" d="M112.8,60.5s.7.3,1.8.6c1.2.3,2.1,1.1,2.1,1.1,0,0,.4.4,1.1.1.3,0,.4-.2.4-.2h0c0-.1-.1-1.1-1.5-2.3v.8s0,.6-.6.5c-.5,0-1.7-.5-3.3-.6Z"/>
            <path class="st20" d="M108.9,72.9v-3.1c.1,0,.8-1.2,2.5-2.4-.1.3-.7,1.4-.7,3.5,0,2.1-.2,4.3-.2,4.3,0,0-1.2-2.3-1.6-2.2Z"/>
            <path class="st29" d="M111.4,67.4s1.3,1.3,1.5,2.6c0,.3.1.8.1,1.5s-.1,2.1.6,3.2c.3.5.6,1.8.6,1.8,0,0-.3-.2-.6-.5-.4-.3-2.4-1.8-2.9-4.6-.5-2.8.6-4,.6-4Z"/>
            <path class="st24" d="M109.2,65.3s.9.7,2.2,2.1c0,0-1.5,1.2-2.4,2.4,0-.7.2-4.5.2-4.5Z"/>
            <path class="st18" d="M110.7,70.7s-.1,3.9-.2,4.4c0,0,.9,1.6,1.7,3.6.7,2,1.3,3.7,1.5,5,.2,1.3.4,2.2.6,2.7,0-.3-.2-7-.6-10.5-.6-.6-2.3-1.9-3-5.2Z"/>
            <path class="st27" d="M110.5,75.2s3.4,6.2,3.7,11.4c0,1.7-.2,5.1-.6,7.2-.4.2-8.6,4-9.4,13v-15.4s5.1.7,6.4-16.1Z"/>
            <path class="st15" d="M113.6,93.7s-8.8,4-9.4,13.1v4.3s.5-.3,1.1-1c.6-.6,4.7-5.1,6.3-9.8,1.6-4.6,1.7-5.2,2-6.7Z"/>
            <path class="st22" d="M115.5,94s.2-1.2-1.1-.7c-.5.2-.8.3-.8.3,0,0-.5,4.2-3.7,10.2-.7,1.3-2.9,4.8-5.8,7.3v2h.1s2,.5,9.6-4.8c.2-.5,2-3.1,1.6-14.3Z"/>
            <path class="st33" d="M104.3,113.1h-.1v4.6c1.9-1.5,3.9-3,5.8-4.6,1.7-1.4,3-3,3.9-4.9-7.6,5.3-9.6,4.8-9.6,4.8Z"/>
          </g>
          <path class="st34" d="M107.9,53.7c0,.5-.4,1-1,1s-1-.4-1-1,.4-1,1-1,1,.4,1,1Z"/>
          <path class="st34" d="M108.7,52.9c0,.6-.5,1-1,1s-1-.5-1-1,.5-1,1-1,1,.5,1,1Z"/>
          <path class="st34" d="M109.5,52.5c0,.6-.5,1-1,1s-1-.5-1-1,.5-1,1-1,1,.5,1,1Z"/>
          <path class="st34" d="M110.2,52.1c0,.6-.5,1-1,1s-1-.5-1-1,.5-1,1-1,1,.5,1,1Z"/>
          <path class="st40" d="M111,51.8c0,.6-.5,1-1,1s-1-.5-1-1,.5-1,1-1,1,.5,1,1Z"/>
          <circle class="st40" cx="110.9" cy="51.5" r=".9"/>
          <path class="st40" d="M112.8,51.6c0,.5-.4.9-.9.9s-.9-.4-.9-.9.4-.9.9-.9.9.4.9.9Z"/>
          <path class="st32" d="M113.7,51.5c0,.5-.4.9-.9.9s-.9-.4-.9-.9.4-.9.9-.9.9.4.9.9Z"/>
          <path class="st32" d="M114.5,51.5c0,.5-.4.9-.9.9s-.9-.4-.9-.9.4-.9.9-.9.9.4.9.9Z"/>
          <path class="st32" d="M115.1,51.6c0,.5-.4.9-.9.9s-.9-.4-.9-.9.4-.9.9-.9.9.4.9.9Z"/>
          <path class="st32" d="M115.6,51.9c0,.5-.4.9-.9.9s-.9-.4-.9-.9.4-.9.9-.9.9.4.9.9Z"/>
        </g>
        <g>
          <path class="st43" d="M36.5,108.9h1.3v-8h-1.3v-.2h6.7v2h-.1c-.1-.3-.2-.6-.3-.8-.1-.2-.3-.4-.4-.6-.2-.2-.4-.3-.6-.4-.2,0-.5-.1-.8-.1h-1.9v3.8h.8c.3,0,.5,0,.7,0,.2,0,.3-.1.5-.3.1-.1.2-.3.3-.5,0-.2.2-.5.3-.9h.1v3.6h-.1c0-.2-.1-.4-.2-.7,0-.2-.1-.4-.2-.6-.1-.2-.2-.3-.4-.4-.2,0-.4-.1-.7-.1h-.9v4h1.3v.2h-3.8v-.2Z"/>
          <path class="st43" d="M44.3,108.9h1.3v-8h-1.3v-.2h6.7v2h-.1c-.1-.3-.2-.6-.3-.8-.1-.2-.3-.4-.4-.6-.2-.2-.4-.3-.6-.4-.2,0-.5-.1-.8-.1h-1.9v3.6h.8c.3,0,.5,0,.7,0,.2,0,.3-.1.5-.3.1-.1.2-.3.3-.5,0-.2.2-.5.3-.9h.1v3.6h-.1c0-.2-.1-.4-.2-.7,0-.2-.1-.4-.2-.6-.1-.2-.2-.3-.4-.4-.2,0-.4-.1-.7-.1h-.9v4.2h2.2c.4,0,.8,0,1.1-.3.3-.2.5-.4.7-.7.2-.3.3-.5.4-.8,0-.3.1-.5.2-.7h.1v2.6h-7.1v-.2Z"/>
          <path class="st43" d="M52.8,106.5h.1c0,.4.2.8.3,1.1.1.3.3.5.5.7.2.2.3.3.5.4.2.1.4.2.5.2.2,0,.4,0,.5,0,.2,0,.3,0,.5,0,.4,0,.8,0,1-.2.3-.1.5-.3.6-.5.2-.2.3-.4.3-.6,0-.2,0-.4,0-.6,0-.3,0-.5-.2-.7-.1-.2-.2-.4-.4-.5-.2-.1-.3-.2-.5-.3-.2,0-.4-.2-.5-.2l-1.3-.4c-.6-.2-1.1-.5-1.4-.8-.3-.3-.5-.7-.5-1.3s0-.7.2-1c.1-.3.3-.6.5-.8.2-.2.5-.4.8-.5.3-.1.7-.2,1-.2s.5,0,.7,0c.2,0,.3,0,.5.2.1,0,.3.1.4.2.1,0,.2,0,.3,0s.2,0,.2,0c0,0,0,0,.1-.2h.2v2.1h-.1c0-.3-.1-.6-.2-.8-.1-.3-.3-.5-.4-.7-.2-.2-.4-.4-.6-.5-.3-.1-.5-.2-.9-.2s-.4,0-.6,0c-.2,0-.4.1-.6.3-.2.1-.4.3-.5.5-.1.2-.2.5-.2.8s0,.5.2.6c.1.2.2.3.4.4.2.1.3.2.5.3.2,0,.4.2.6.2l1.4.4c.1,0,.3.1.6.2.2,0,.4.2.7.4.2.2.4.4.5.6.2.3.2.6.2,1s0,.7-.2,1c-.1.3-.3.6-.6.9-.3.3-.6.5-.9.6-.4.2-.8.2-1.2.2s-.3,0-.4,0c-.1,0-.2,0-.4,0-.1,0-.2,0-.3,0-.1,0-.2,0-.4,0-.2,0-.3-.1-.5-.2-.2,0-.3,0-.5,0s-.2,0-.2,0c0,0,0,.1-.1.2h-.2v-2.5Z"/>
          <path class="st43" d="M61.2,108.9h1.3v-8h-.7c-.2,0-.3,0-.5,0-.2,0-.4.1-.6.2-.2.1-.4.3-.6.6-.2.3-.3.6-.5,1.1h-.1v-2.1h7.1v2.1h-.1c-.1-.5-.3-.8-.5-1.1-.2-.3-.4-.5-.6-.6-.2-.1-.4-.2-.6-.2-.2,0-.4,0-.5,0h-.7v8h1.3v.2h-3.8v-.2Z"/>
          <path class="st43" d="M67.7,108.9h1.3v-8h-1.3v-.2h3.8v.2h-1.3v8h1.3v.2h-3.8v-.2Z"/>
          <path class="st43" d="M72.7,100.7h3.6v.2h-1.3l2.6,6.8,2.6-6.8h-1.3v-.2h2.5v.2h-1.1l-3.1,8.3h-.3l-3.2-8.3h-1.1v-.2Z"/>
          <path class="st43" d="M79.1,108.9h1l3.2-8.4h.3l3.2,8.4h1v.2h-3.6v-.2h1.3l-1.2-3.3h-2.7l-1.2,3.3h1.3v.2h-2.5v-.2ZM82.9,102l-1.3,3.4h2.6l-1.3-3.4Z"/>
          <path class="st43" d="M88.7,108.9h1.3v-8h-1.3v-.2h3.8v.2h-1.3v8h2.1c.7,0,1.2-.2,1.6-.6.4-.4.7-1,.9-1.8h.1v2.6h-7.1v-.2Z"/>
        </g>
        <g>
          <path class="st43" d="M36.5,97.5h1v-6.1h-1c0-.1,2.9-.1,2.9-.1h0c0,.1-1,.1-1,.1v6.1h1.6c.5,0,.9-.2,1.2-.5.3-.3.5-.8.7-1.3h0v2h-5.5Z"/>
          <path class="st43" d="M42.7,97.5h1v-6.1h-1c0-.1,2.9-.1,2.9-.1h0c0,.1-1,.1-1,.1v6.1h1c0,.1-2.9.1-2.9.1h0Z"/>
          <path class="st43" d="M47.5,97.5h1v-6.1h-.5c-.1,0-.3,0-.4,0-.1,0-.3,0-.5.2-.2,0-.3.2-.4.5-.1.2-.3.5-.4.9h0v-1.6h5.4v1.6h0c-.1-.4-.2-.6-.4-.9-.1-.2-.3-.4-.4-.5-.2,0-.3-.2-.5-.2-.1,0-.3,0-.4,0h-.5v6.1h1c0,.1-2.9.1-2.9.1h0Z"/>
          <path class="st43" d="M52.2,97.5h1v-6.1h-1c0-.1,5.1-.1,5.1-.1v1.5h0c0-.2-.2-.4-.3-.6,0-.2-.2-.3-.3-.4-.1-.1-.3-.2-.4-.3-.2,0-.4,0-.6,0h-1.5v2.8h.6c.2,0,.4,0,.5,0,.1,0,.3-.1.4-.2,0,0,.2-.2.3-.4,0-.2.1-.4.2-.7h0v2.8h0c0-.2,0-.3-.1-.5,0-.2-.1-.3-.2-.4,0-.1-.2-.2-.3-.3-.1,0-.3-.1-.5-.1h-.7v3.2h1.7c.3,0,.6,0,.8-.2.2-.1.4-.3.5-.5.1-.2.2-.4.3-.6,0-.2.1-.4.1-.5h0v2h-5.5Z"/>
          <path class="st43" d="M58.3,97.5h1v-6.1h-1c0-.1,1.7-.1,1.7-.1,0,0,.1,0,.2,0,0,0,.1,0,.2,0,0,0,.1,0,.2,0,0,0,.1,0,.2,0,.4,0,.7,0,.9,0,.3,0,.5.2.8.3.2.2.4.3.4.5,0,.2.1.4.1.6s0,.2,0,.3c0,.1-.1.3-.2.4-.1.1-.3.3-.5.4-.2.1-.5.2-.8.2h0c0,0,.2,0,.4,0,.2,0,.3,0,.5.2.2,0,.3.2.5.3.1.1.2.3.3.5,0,.1,0,.3,0,.4,0,.2,0,.3,0,.5,0,.2,0,.3,0,.5,0,.1,0,.3,0,.4,0,.2,0,.3.2.4,0,.1.2.2.4.2s.2,0,.2,0c0,0,.2,0,.2-.1h0c0,.1,0,.1-.1.2,0,0,0,0-.1,0,0,0-.1,0-.2,0,0,0-.2,0-.3,0-.2,0-.4,0-.6,0-.2,0-.3-.1-.4-.3,0-.1-.2-.3-.2-.4,0-.2,0-.4,0-.6v-.8c0-.3-.1-.5-.2-.7,0-.2-.2-.3-.3-.4-.1,0-.3-.1-.4-.1-.1,0-.3,0-.4,0h-.9v3.2h1c0,.1-2.9.1-2.9.1h0ZM60.2,94.1h.8c.2,0,.3,0,.5,0,.1,0,.3-.1.4-.2,0-.1.2-.2.2-.4,0-.2,0-.4,0-.7s0-.6-.1-.7c0-.2-.2-.3-.3-.4-.1,0-.3-.2-.4-.2-.2,0-.3,0-.5,0s-.2,0-.3,0c-.1,0-.2,0-.3,0v2.8Z"/>
          <path class="st43" d="M64.8,97.5h.8l2.4-6.4h.2l2.4,6.4h.8c0,.1-2.8.1-2.8.1h0c0-.1,1-.1,1-.1l-.9-2.5h-2.1l-.9,2.5h1c0,.1-1.9.1-1.9.1h0ZM67.7,92.3l-1,2.6h2l-1-2.6Z"/>
          <path class="st43" d="M72.1,97.5h1v-6.1h-.5c-.1,0-.3,0-.4,0-.1,0-.3,0-.5.2-.2,0-.3.2-.4.5-.1.2-.3.5-.4.9h0v-1.6h5.4v1.6h0c-.1-.4-.2-.6-.4-.9-.1-.2-.3-.4-.4-.5-.2,0-.3-.2-.5-.2-.1,0-.3,0-.4,0h-.5v6.1h1c0,.1-2.9.1-2.9.1h0Z"/>
          <path class="st43" d="M76.8,91.2h2.9c0,.1-1,.1-1,.1v4.3c0,.4,0,.7,0,.9,0,.2.2.4.3.6.1.2.3.3.5.3.2,0,.4,0,.6,0s.6,0,.9-.1c.3,0,.5-.3.7-.5,0,0,.1-.2.2-.2,0,0,0-.2.1-.3,0-.1,0-.2,0-.4,0-.1,0-.3,0-.5v-4.2h-1c0-.1,2.1-.1,2.1-.1h0c0,.1-1,.1-1,.1v4.3c0,.3,0,.5,0,.7,0,.2-.2.4-.3.6-.2.2-.4.4-.7.5-.3.1-.7.2-1.1.2-.7,0-1.3-.2-1.6-.5-.4-.4-.6-.9-.6-1.6v-4.2h-1Z"/>
          <path class="st43" d="M83.7,97.5h1v-6.1h-1c0-.1,1.7-.1,1.7-.1,0,0,.1,0,.2,0,0,0,.1,0,.2,0,0,0,.1,0,.2,0,0,0,.1,0,.2,0,.4,0,.7,0,.9,0,.3,0,.5.2.8.3.2.2.4.3.4.5,0,.2.1.4.1.6s0,.2,0,.3c0,.1-.1.3-.2.4-.1.1-.3.3-.5.4-.2.1-.5.2-.8.2h0c0,0,.2,0,.4,0,.2,0,.3,0,.5.2.2,0,.3.2.5.3.1.1.2.3.3.5,0,.1,0,.3,0,.4,0,.2,0,.3,0,.5,0,.2,0,.3,0,.5,0,.1,0,.3,0,.4,0,.2,0,.3.2.4,0,.1.2.2.4.2s.2,0,.2,0c0,0,.2,0,.2-.1h0c0,.1,0,.1-.1.2,0,0,0,0-.1,0,0,0-.1,0-.2,0,0,0-.2,0-.3,0-.2,0-.4,0-.6,0-.2,0-.3-.1-.4-.3,0-.1-.2-.3-.2-.4,0-.2,0-.4,0-.6v-.8c0-.3-.1-.5-.2-.7,0-.2-.2-.3-.3-.4-.1,0-.3-.1-.4-.1-.1,0-.3,0-.4,0h-.9v3.2h1c0,.1-2.9.1-2.9.1h0ZM85.6,94.1h.8c.2,0,.3,0,.5,0,.1,0,.3-.1.4-.2,0-.1.2-.2.2-.4,0-.2,0-.4,0-.7s0-.6-.1-.7c0-.2-.2-.3-.3-.4-.1,0-.3-.2-.4-.2-.2,0-.3,0-.5,0s-.2,0-.3,0c-.1,0-.2,0-.3,0v2.8Z"/>
          <path class="st43" d="M90.4,97.5h1v-6.1h-1c0-.1,5.1-.1,5.1-.1v1.5h0c0-.2-.2-.4-.3-.6,0-.2-.2-.3-.3-.4-.1-.1-.3-.2-.4-.3-.2,0-.4,0-.6,0h-1.5v2.8h.6c.2,0,.4,0,.5,0,.1,0,.3-.1.4-.2,0,0,.2-.2.3-.4,0-.2.1-.4.2-.7h0v2.8h0c0-.2,0-.3-.1-.5,0-.2-.1-.3-.2-.4,0-.1-.2-.2-.3-.3-.1,0-.3-.1-.5-.1h-.7v3.2h1.7c.3,0,.6,0,.8-.2.2-.1.4-.3.5-.5.1-.2.2-.4.3-.6,0-.2.1-.4.1-.5h0v2h-5.5Z"/>
        </g>
      </g>
    </g>
    <g>
      <path class="st31" d="M106.4,124.4s0,0,0,0h.6c.3,0,.5.2.5.5s-.1.4-.4.5l.3.6s0,0,0,0h-.1s0,0,0,0l-.3-.6h-.5v.6s0,0,0,0h0s0,0,0,0v-1.6ZM107,125.2c.2,0,.4-.2.4-.4s-.2-.3-.4-.3h-.5v.7h.5Z"/>
      <path class="st31" d="M106.9,126.5c-.7,0-1.4-.6-1.4-1.4s.6-1.4,1.4-1.4,1.4.6,1.4,1.4-.6,1.4-1.4,1.4ZM106.9,124c-.6,0-1.2.5-1.2,1.2s.5,1.2,1.2,1.2,1.2-.5,1.2-1.2-.5-1.2-1.2-1.2Z"/>
    </g>
  </g>
  <g>
    <path class="st31" d="M57.5,21v-2.4h.8c.1,0,.2,0,.3,0s.2,0,.3.2c0,0,.1.1.2.2,0,0,0,.2,0,.3s0,.2,0,.3c0,0-.1.2-.2.2,0,0-.2.1-.3.2s-.2,0-.3,0h-.4v.9h-.5ZM58.3,19.7c.1,0,.2,0,.3-.1,0,0,0-.1,0-.2s0,0,0-.1,0,0,0-.1,0,0-.1,0c0,0,0,0-.2,0h-.4v.7h.4Z"/>
    <path class="st31" d="M59.5,18.6h.9c.1,0,.2,0,.3,0,0,0,.2,0,.3.2s.1.1.2.2,0,.2,0,.3,0,.2,0,.2c0,0,0,.1-.1.2,0,0-.1.1-.2.2,0,0-.1,0-.2.1h0s.6.9.6.9h0s-.5,0-.5,0l-.6-.9h-.2v.9h-.5v-2.4ZM60.3,19.7c.1,0,.2,0,.3,0,0,0,0-.1,0-.2s0,0,0-.1c0,0,0,0,0-.1,0,0,0,0-.1,0,0,0,0,0-.1,0h-.4v.7h.4Z"/>
    <path class="st31" d="M62,19v.6h1v.4h-1v.6h1.1v.4h-1.5v-2.4h1.5v.4h-1.1Z"/>
    <path class="st31" d="M64.2,21c-.1,0-.2,0-.3,0s-.2,0-.3-.1c0,0-.1-.1-.2-.2,0,0-.1-.2-.1-.3l.4-.2c0,.1,0,.2.2.3,0,0,.2.1.3.1s0,0,.1,0c0,0,0,0,.1,0s0,0,0,0c0,0,0,0,0-.1s0,0,0-.1c0,0,0,0,0-.1,0,0,0,0-.1,0,0,0-.1,0-.2,0h-.1c0,0-.1-.1-.2-.1,0,0-.1,0-.2-.1,0,0,0-.1-.1-.2,0,0,0-.2,0-.2s0-.2,0-.3c0,0,0-.2.2-.2,0,0,.1-.1.2-.1s.2,0,.3,0,.2,0,.3,0c0,0,.2,0,.2.1,0,0,.1.1.1.2s0,.1,0,.2l-.4.2c0,0,0-.1-.1-.2,0,0-.1,0-.2,0s-.2,0-.2,0,0,.1,0,.2,0,.1,0,.2c0,0,.2,0,.3.1h.2c0,0,.2.1.3.2,0,0,.1,0,.2.2,0,0,.1.1.1.2,0,0,0,.2,0,.3s0,.2,0,.3c0,0-.1.2-.2.2s-.2.1-.3.1-.2,0-.3,0Z"/>
    <path class="st31" d="M65.8,19v.6h1v.4h-1v.6h1.1v.4h-1.5v-2.4h1.5v.4h-1.1Z"/>
    <path class="st31" d="M67.3,18.6h.5l1,1.6h0v-.5s0-1.1,0-1.1h.4v2.4h-.5l-1-1.7h0v.5s0,1.2,0,1.2h-.4v-2.4Z"/>
    <path class="st31" d="M70.2,21v-2h-.7v-.4h1.8v.4h-.7v2h-.5Z"/>
    <path class="st31" d="M72.4,21c-.1,0-.2,0-.3,0s-.2,0-.3-.1c0,0-.1-.1-.2-.2s-.1-.2-.1-.3l.4-.2c0,.1,0,.2.2.3,0,0,.2.1.3.1s0,0,.1,0c0,0,0,0,.1,0,0,0,0,0,0,0,0,0,0,0,0-.1s0,0,0-.1c0,0,0,0,0-.1,0,0,0,0-.1,0,0,0-.1,0-.2,0h-.1c0,0-.1-.1-.2-.1,0,0-.1,0-.2-.1,0,0,0-.1-.1-.2,0,0,0-.2,0-.2s0-.2,0-.3c0,0,0-.2.2-.2s.1-.1.2-.1c0,0,.2,0,.3,0s.2,0,.3,0,.2,0,.2.1c0,0,.1.1.1.2,0,0,0,.1,0,.2l-.4.2c0,0,0-.1-.1-.2,0,0-.1,0-.2,0s-.2,0-.2,0,0,.1,0,.2,0,.1,0,.2c0,0,.2,0,.3.1h.2c0,0,.2.1.3.2,0,0,.1,0,.2.2,0,0,.1.1.1.2,0,0,0,.2,0,.3s0,.2,0,.3-.1.2-.2.2c0,0-.2.1-.3.1s-.2,0-.3,0Z"/>
  </g>
  <g>
    <path class="st2" d="M64.7,7.5v-2.4c0-.5,0-.6.5-.6s.7,0,1,0c.4,0,.5.1.5.5,0,2,0,3.9,0,5.9s0,1.5,0,2.3c0,.4,0,.5-.5.5-.4,0-.7,0-1.1,0-.2,0-.3,0-.3-.2,0-.2-.2-.4-.3-.6,0,0-.2.1-.2.2-.6.6-1.2.9-2.1.7-1-.2-1.8-.7-2.3-1.6-.5-.9-.6-1.9-.4-2.9.2-1.2.9-2.1,2-2.5.8-.3,1.6-.4,2.4,0,.2.1.3.3.5.4,0,0,.1,0,.2.2M61.5,10.3c0,1.1.7,1.8,1.6,1.8,1,0,1.7-.7,1.7-1.7,0-1-.8-1.8-1.7-1.8-.9,0-1.6.7-1.6,1.8"/>
    <path class="st2" d="M73.2,7.7c.1-.3.2-.6.3-.8,0,0,.2-.2.2-.2.3,0,.7,0,1,0,.3,0,.4.2.4.5,0,.7,0,1.3,0,2,0,1.4,0,2.7,0,4.1,0,.4-.1.6-.5.6s-.6,0-.9,0c-.3,0-.4-.1-.5-.3,0-.1-.1-.3-.2-.5-.2.1-.3.3-.4.4-.5.5-1.1.7-1.8.5-.8-.1-1.5-.5-2.1-1.1-.8-.9-1.1-2-1-3.2.2-1,.6-1.8,1.5-2.4.5-.3,1-.5,1.5-.6,1-.2,1.7.2,2.3,1,0,0,0,0,.1.1M71.3,8.5c-.9,0-1.6.7-1.6,1.8,0,1.1.6,1.8,1.6,1.8,1,0,1.7-.7,1.7-1.8,0-1-.8-1.8-1.7-1.8"/>
    <path class="st2" d="M77.9,7.8c0,0,.1-.1.2-.2.5-.7,1.2-1,2-1,1.4,0,2.3,1.2,2.5,2.4,0,.3,0,.5,0,.8,0,1.2,0,2.4,0,3.5,0,.4,0,.4-.4.4-.4,0-.8,0-1.2,0-.3,0-.4,0-.4-.4,0-1.2,0-2.4,0-3.5,0-.6-.5-1.2-1.2-1.3-.5,0-1.2.5-1.3,1,0,0,0,.2,0,.3,0,1.1,0,2.3,0,3.4,0,.4,0,.5-.5.5s-.8,0-1.2,0c-.3,0-.4-.1-.4-.4,0-2.1,0-4.2,0-6.3,0-.3.2-.4.4-.4.3,0,.5,0,.8,0,.2,0,.3,0,.4.3,0,.2.1.5.2.8"/>
    <path class="st2" d="M48.7,10.7c0-.3.2-.5.3-.8.3-1,.6-1.9.9-2.9,0-.2.2-.3.4-.3.5,0,1,0,1.5,0,.4,0,.4.2.3.5-.3.7-.5,1.3-.8,2-.6,1.3-1.1,2.7-1.7,4-.3.8-.3.6-.9.7-.7,0-.7,0-.9-.6-.8-2-1.6-3.9-2.4-5.9-.1-.3-.1-.6.4-.6.4,0,.8,0,1.1,0,.6,0,.5.1.7.5.4,1.1.7,2.3,1.1,3.4,0,0,0,0,0,0"/>
    <path class="st2" d="M86.1,11.2c0,.7,0,1.4,0,2,0,.4,0,.5-.5.5-.4,0-.7,0-1.1,0s-.5-.1-.5-.5c0-.6,0-1.2,0-1.8s0-1.5,0-2.3c0-.2,0-.3-.3-.3-.5,0-.6,0-.6-.6s0-.6,0-.9c0-.4.1-.5.5-.5q.3,0,.3-.4c0-.3,0-.6,0-.9,0-.2,0-.4.3-.5.4-.2.8-.3,1.3-.5.4-.1.5,0,.6.4,0,.5,0,1,0,1.5,0,.2,0,.3.2.2.2,0,.4,0,.6,0,.3,0,.5.1.5.4,0,.4,0,.7,0,1.1,0,.3-.2.4-.5.4-.2,0-.4,0-.6,0-.2,0-.3,0-.3.3,0,.7,0,1.4,0,2.1"/>
    <path class="st2" d="M27.1,7.9c.9,0,1.9.2,2.8.4.9.2,1.7.5,2.5,1,.7.4,1.3,1,1.5,1.8,0,.2,0,.3.1.5.2.8.8,1.2,1.5,1.3,1,.2,1.9,0,2.9-.2,1.4-.3,2.7-.9,4-1.4,0,0,.3,0,.3,0,0,0,.1.2.1.3,0,.2,0,.5-.1.7,0,.4-.3.6-.6.7-1.1.4-2.1.7-3.2,1-.9.3-1.8.4-2.7.4-.7,0-1.3-.2-1.8-.6-.3-.3-.5-.7-.6-1.2,0-.7-.5-1.3-1-1.7-.8-.6-1.8-1-2.8-1.2-1.1-.3-2.3-.4-3.4-.3-.4,0-.5-.2-.4-.5,0-.2,0-.3.1-.5.1-.4.2-.5.6-.5h.3"/>
    <path class="st2" d="M28.1,5.5c1.5.2,3,.5,4.3,1.4.6.4,1.1,1,1.4,1.7,0,.3,0,.6.2.8.3.7.9.9,1.6,1,1.5.2,2.8-.2,4.2-.7.7-.2,1.4-.5,2-.8.2,0,.6-.2.7,0,0,.1.1.3.1.5,0,.6,0,.8-.6,1.1-1.1.5-2.2.8-3.3,1.1-.8.2-1.7.4-2.6.4-.7,0-1.3,0-1.9-.5-.4-.3-.7-.8-.7-1.3,0-.6-.4-1.1-.8-1.5-.8-.7-1.8-1.1-2.9-1.4-.8-.2-1.7-.3-2.5-.4-.1,0-.2,0-.3,0-.2,0-.3-.3-.2-.4.1-.2.3-.5.4-.7.2-.2.5-.2.8-.2"/>
    <path class="st2" d="M36.4,16.9c-.6,0-1.3,0-1.9-.4-.4-.3-.7-.6-.8-1.1-.1-.7-.4-1.4-1-1.9-.5-.4-1.2-.8-1.8-1-.9-.3-1.9-.5-2.9-.6-.5,0-1,0-1.5,0-.5,0-.6-.1-.6-.6,0-.1,0-.3,0-.4,0-.3.1-.5.4-.5.7,0,1.4,0,2,.1.7,0,1.4.2,2.1.4.9.2,1.7.6,2.4,1.2.6.5.9,1.2,1.1,2,.1.7.7,1.1,1.4,1.3.9.2,1.8,0,2.7-.1,1.1-.2,2.1-.6,3.1-1,.2,0,.3-.1.5-.2,0,0,.2,0,.2,0,0,0,0,.2,0,.2-.2.4-.5.8-.7,1.2-.3.4-.7.6-1.2.7-.9.3-1.9.5-2.8.6-.2,0-.5,0-.7,0"/>
    <path class="st2" d="M28.5,14.4c.1.1.3.2.4.3.9.7,1.8,1.4,2.6,2.1.7.6,1.2,1.2,1.7,2.1-.4,0-.7-.1-1-.2-1.1-.3-2.1-.8-3-1.5-1.2-.9-2.1-2-2.6-3.4,0-.1,0-.3-.1-.4,0-.3.1-.5.4-.4.5,0,1,0,1.5.2.8.2,1.5.4,2.3.6.9.3,1.7.8,2.4,1.4.6.6.9,1.3,1.1,2.1.1.6.2,1.2.2,1.8-.6-1.1-1.5-2.1-2.5-2.9-1-.8-2.1-1.4-3.4-1.7,0,0,0,0,0,0"/>
    <path class="st2" d="M36.3,9.5c-.6,0-1.1-.1-1.6-.3-.6-.2-.9-.9-1-1.5-.1-.8-.5-1.4-1.2-1.8-.8-.6-1.7-.9-2.6-1.1-.4,0-.7-.1-1.1-.2-.3,0-.3-.3-.1-.5.3-.3.6-.7,1.1-.7.3,0,.6,0,.9.2.9.3,1.8.8,2.5,1.5.4.4.5,1,.7,1.5.1.7.6,1.1,1.2,1.2.8.2,1.5.1,2.3,0,1.4-.2,2.6-.7,3.9-1.2.3-.1.6,0,.7.3,0,.1,0,.2.1.3,0,.2.1.5,0,.6,0,0-.2.1-.3.2-.5.2-1,.4-1.5.5-1.2.4-2.6.9-4,.8"/>
    <path class="st2" d="M36.4,7.1c-.7,0-1.3,0-1.9-.5-.5-.3-.8-.8-.8-1.4-.1-.7-.5-1.3-1-1.7-.3-.2-.6-.4-.9-.6-.2-.1-.3-.3-.4-.4.1,0,.3-.2.4-.3.8-.3,1.1-.1,1.6.5.3.4.4.9.5,1.4.1.6.6,1,1.1,1.2.8.3,1.6.2,2.5,0,.9-.2,1.8-.5,2.7-.7.3,0,.5,0,.6.2.1.2.3.3.4.5.1.2,0,.4-.2.5-.7.2-1.3.5-2,.6-.6.2-1.3.3-1.9.4-.2,0-.5,0-.7,0"/>
    <path class="st2" d="M36.3,4.8c-.7,0-1.3-.1-1.8-.6-.5-.4-.7-.9-.8-1.5,0-.2,0-.3,0-.5,0,0,0-.2,0-.2.1,0,.2,0,.3,0,0,0,.1,0,.1.2.3.6.9.8,1.5.9.7.1,1.5,0,2.2-.1.3,0,.6,0,.9.1.3.1.5.3.7.5.2.2.2.4,0,.5-.5.2-1,.3-1.5.4-.5.1-1,.2-1.5.2"/>
    <path class="st2" d="M34.8,19c.5-.6,1.1-1,1.7-1.3.7-.3,1.4-.5,2.1-.6.2,0,.5,0,.7,0,0,0,.2.1.3.2,0,0-.1.2-.2.2-1,.6-2,1-3.2,1.3-.4,0-.8.1-1.1.2,0,0-.2,0-.3,0"/>
    <path class="st2" d="M95.1,7.1c0-.2,0-.4-.3-.4-.3,0-.7,0-1,0-.1,0-.2.2-.3.3-.1.2-.2.5-.3.8,0-.1-.1-.2-.2-.2-.5-.7-1.2-1-2.1-.9-1,.1-1.9.6-2.5,1.4-.4.5-.6,1.1-.7,1.8,0,.6,0,1.3.2,1.9.4,1,1,1.7,2,2,.6.2,1.2.4,1.8.2.4-.1.8-.4,1.1-.7,0,0,.1-.1.2-.2,0,.2.1.4.2.6,0,.2.2.2.4.2.3,0,.7,0,1,0,.4,0,.5,0,.5-.5,0-1.8,0-3.7,0-5.5s0-.4,0-.7M91.2,12c-.9,0-1.6-.7-1.6-1.7,0-1,.7-1.8,1.7-1.8.9,0,1.7.8,1.7,1.8,0,1-.8,1.8-1.8,1.7"/>
    <path class="st2" d="M56.8,10.9c.5,0,.9,0,1.4,0,.4,0,.6-.2.6-.6,0-1.4-.5-2.5-1.7-3.2-.9-.6-1.9-.7-2.9-.3-1.3.5-2.1,1.4-2.3,2.7-.2,1.1,0,2.1.7,2.9.9,1.1,2,1.6,3.4,1.4.8,0,1.4-.4,2-1,.2-.2.2-.4,0-.6-.2-.2-.4-.4-.6-.6-.2-.2-.4-.2-.6,0-.6.5-1.3.6-2.1.4-.5-.2-.9-.7-.9-1.1h.3c.9,0,1.7,0,2.6,0M55.6,8.3c.5,0,1.1.5,1.2,1h-2.7c.3-.7.9-1,1.5-1"/>
  </g>
</svg>