<svg xmlns="http://www.w3.org/2000/svg" viewBox="0 0 1280 288" fill="#111111">
 <g transform="translate(0,40)">
  <path id="d" d="m1236.1 137.57q7.1216-7.75 7.12-20.488 0-12.738-7.12-20.593-7.1214-7.85-19.635-7.8555-12.516 0-19.311 7.75t-6.7982 20.699q0 12.739 6.7982 20.488 6.8 7.75 19.311 7.75 12.51 0 19.635-7.75m-56.921 33.438a56.755 56.755 0 0 1-18.548-22.505 71.942 71.942 0 0 1-6.7913-31.421 72.645 72.645 0 0 1 6.7913-31.527 56.6 56.6 0 0 1 18.548-22.611 44.378 44.378 0 0 1 26.151-8.2789 45.541 45.541 0 0 1 23.1 5.9437 36.321 36.321 0 0 1 14.781 15.498v-51.591l36.304 0v151.58l-36.304-1e-3v-16.873c-4.8647 7.362-9.1386 12.453-15.692 15.495a52.15 52.15 0 0 1-22.198 4.56 44.4 44.4 0 0 1-26.151-8.28"/>
  <rect id="l" x="1106.5" y="24.52" width="36" height="151.6"/>
  <polygon id="r2" points="1060.7 176.11 1024.2 176.11 1024.2 57.9 1095.3 57.9 1095.3 91.8 1060.7 91.8"/>
  <path id="o2" d="m969.1 137.68q7.5335-7.43 7.54-20.6 0-13.585-7.43-20.806-7.435-7.216-19.107-7.2183-11.681 0-19 7.2183-7.3248 7.2194-7.3241 20.806 0 13.165 7.431 20.6 7.4266 7.435 18.895 7.4311 11.46 0 19-7.4311m-50.422 33.226a62.96 62.96 0 0 1-22.928-22.716 61.782 61.782 0 0 1 0-62.524 63.296 63.296 0 0 1 108.7 0 61.782 61.782 0 0 1 0 62.524 63 63 0 0 1-22.929 22.716 63 63 0 0 1-62.842 0"/>
  <polygon id="w" points="715.94 57.9 753.51 57.9 770.5 123.67 787.27 57.9 818.27 57.9 835 123.67 851.6 57.9 889.39 57.9 857.33 176.11 819.75 176.11 802.77 108.6 785.78 176.11 748.2 176.11"/>
  <path id="f" d="m659.74 57.853v-33.3h-27.813a33.97 33.97 0 0 0-33.97 33.97v20.38h-15.696v33.97h15.696v63.267h36.517v-63.267h25.265v-33.97h-25.265v-21z"/>
  <path id="o1" d="m527.18 137.68q7.534-7.43 7.54-20.6 0-13.585-7.43-20.806-7.4349-7.216-19.108-7.2183-11.678 0-19 7.2183t-7.3241 20.806q0 13.165 7.4311 20.6 7.4283 7.435 18.895 7.4311 11.46 0 19-7.4311m-50.423 33.226a62.972 62.972 0 0 1-22.929-22.716 61.789 61.789 0 0 1 0-62.524 63.295 63.295 0 0 1 108.7 0 61.782 61.782 0 0 1 0 62.524 63 63 0 0 1-22.928 22.716 63 63 0 0 1-62.842 0"/>
  <path id="t" d="m327.37 91.8h-15.701v-33.97h15.701v-33.3h36.304v33.3h25.472v33.97h-25.472v47.131h25.472v37.154h-27.807a33.97 33.97 0 0 1-33.97-33.97z"/>
  <path id="s" d="m280 107.2a119.35 119.35 0 0 0-17.387-4.7071c-6.2067-1.2355-10.737-2.8009-13.465-4.6536a7.1559 7.1559 0 0 1-3.6-6.2535 8.1571 8.1571 0 0 1 2.97-6.4506 11.34 11.34 0 0 1 7.7051-2.6962c7.2762 0 10.966 2.9346 11.72 9.3875h38a35.113 35.113 0 0 0-13.748-26.293c-9-7.206-21.138-10.86-35.912-10.86-13.788 0-25.136 3.6453-33.73 10.837a34.954 34.954 0 0 0-13.103 27.906 31.834 31.834 0 0 0 4.6291 17 38 38 0 0 0 13.271 12.538c5.6518 3.349 12.895 6 21.526 8.13 8.23 1.9508 13.843 3.8258 16.682 5.5739 2.4689 1.523 3.62 3.359 3.62 5.7777a7.9813 7.9813 0 0 1-2.812 6.3927c-1.9463 1.6846-5 2.5391-9.1746 2.5391-4.5857 0-8.3647-1.1141-11.23-3.3134-2.4978-1.914-3.89-5-4.2012-9.1512h-35.689a36.798 36.798 0 0 0 6.4295 19.456 44.54 44.54 0 0 0 17.912 15.306 58.361 58.361 0 0 0 25.871 5.5772c14.421 0 26.372-3.4994 35.52-10.398 9.3139-7 14-16.276 14-27.484 0-16.39-8.7-27.9-25.9-34.21"/>
  <path id="e" d="m137.4 82.573c13.44 0 24.34 9.7484 24.34 21.775h-48.672c0-12 10.896-21.775 24.34-21.775m21.508 56.38c-4 6.8907-12.182 11.587-21.508 11.587-13.441 0-24.34-9.7484-24.34-21.775l87-2e-3q0.4089-4.6676 0.4106-9.3406a65.897 65.897 0 0 0-8.2142-32.59 62.289 62.289 0 0 0-22.694-23.46 60.824 60.824 0 0 0-31.933-8.7034 63.278 63.278 0 0 0-31.832 8.173 61 61 0 0 0-31 53.606 62.25 62.25 0 0 0 8.3166 31.634 62 62 0 0 0 54.526 31.209q22.179 0 38.608-12.101a57.614 57.614 0 0 0 20.775-28.237z"/>
  <polygon id="r1" points="71.122 91.821 71.122 57.9 0 57.9 0 176.11 36.517 176.11 36.517 91.821"/>
 </g>
 <style>.group { display: none; }</style>
 <g class="group" id="group-1" transform="translate(0,40)">
  <g id="e_umlaut">
   <circle cx="164.7" cy="22.3" r="17.5"/><circle cx="110.7" cy="22.3" r="17.5"/>
  </g>
  <g id="s_cedilla">
   <path d="m226.66 215.94h16.2c1.2 5.7 5.4 10.8 12.9 10.8s12-4.5 12-10.8-4.5-10.2-10.8-10.2a23.6 23.6 0 0 0-9.89 2.4l-8.12-8.4 12.6-22.8h19.847l-10.797 14.05c13.57 0 26.35 7.85 26.35 26.15 0 14.17-14.1 24-30.3 24-17.4 0-28.8-10.2-30-25.2z"/>
  </g>
  <g id="o1_circumflexdot">
   <path d="m548.89 39.6h-19.8l-20.1-20.627-21.278 20.627h-19.2l30.462-39.603h19.2z"/>
   <circle cx="508.07" cy="211.7" r="17.5"/>
  </g>
  <g id="o2_breve">
   <path d="m909.9 0h19.8c2.1 11.7 7.84 20.6 19.84 20.6 12.6 0 19.16-8.6 21.56-20.6h19.2c-1.2 22.8-19.2 39.6-40.8 39.6s-38.4-16.8-39.6-39.6z"/>
  </g>
 </g>
 <g class="group" id="group-2" transform="translate(0,-24)">
  <g id="e_caron" transform="translate(.6 29.5)">
   <path d="m147.2 74.207h-19.2l-30.46-39.6h19.2l21.28 20.63 20.1-20.63h19.8z"/>
  </g>
  <g id="o1_breve" transform="translate(.6 29.5)">
   <path d="m468 34.7h19.8c2.1 11.7 7.84 20.6 19.84 20.6 12.6 0 19.16-8.6 21.56-20.6h19.2c-1.2 22.8-19.2 39.602-40.8 39.6s-38.4-16.8-39.6-39.6z"/>
  </g>
  <g id="o2_circumflextilde" transform="translate(.6 29.5)">
   <path d="m990.34 74.315h-19.8l-20.1-20.627-21.277 20.627h-19.2l30.462-39.603h19.2z"/>
   <path d="m966 13.325c6.35 0 10.94-6 10.9-13.325h13.301c0 16.379-10.05 28.3-24.237 28.3-14.93 0-22.168-13.186-31.922-13.186-6.3546 0-10.9 5.83-10.9 13.186h-13.326c0-16.379 10-28.3 24.24-28.3 14.9 0 22.2 13.325 31.9 13.325z"/>
  </g>
 </g>
 <g class="group" id="group-3" transform="translate(0,40)">
  <g id="e_breve">
   <path d="m97.524 0.0736h19.8c2.1 11.701 7.8424 20.6 19.842 20.6 12.6 0 19.16-8.6 21.56-20.6h19.2c-1.2 22.8-19.2 39.602-40.8 39.602s-38.4-16.8-39.6-39.602z"/>
  </g>
  <g id="o1_circumflexhook" transform="translate(0,-24)">
    <path d="M548.09,72.843h-19.8L508.18,52.2,487,72.84h-19.2L498.16,33.24h19.2Z"/>
    <path d="M532.6,0q11.2,0,18.5,3.7,7.3,3.7,7.3,12.3a14.3,14.3,0,0,1-4.57,10.4,28.71,28.71,0,0,1-11.34,6.78l.0183,7.2173H530.0036V26.2464c5.6392,0,8-.1078,10.55-1.85,3-2.12,3.6-3.34,3.6-6,0-4.615-6.16-6.78-14.17-6.79h-6.4V0"/>
  </g>
  <g id="o2_cedilla">
   <path d="m919.92 216h16.2c1.2 5.7 5.4 10.8 12.9 10.8s12-4.5 12-10.8-4.5005-10.199-10.8-10.199a23.648 23.648 0 0 0-9.8851 2.3994l-8.115-8.4 12.6-22.8h19.847l-10.797 14.05c13.57 0 26.351 7.85 26.351 26.15 0 14.167-14.101 24-30.301 24-17.4 0-28.8-10.199-30-25.2z"/>
  </g>
  <g id="w_caron">
   <path d="m811.7 39.6h-19.2l-30.463-39.603h19.2l21.278 20.627 20.1-20.627h19.8z"/>
  </g>
 </g>
 </svg>